<svg xmlns="http://www.w3.org/2000/svg" width="1119" height="242" fill="none" viewBox="0 0 1119 242">
  <path fill="#E3E3E3" d="M389.458 106.137c.518-3.036.795-6.137.795-9.174 0-3.036-.242-6.137-.795-9.174v.064c-1.377-7.23-4.101-13.85-8.174-19.554-4.101-5.712-9.706-10.692-16.843-14.453-7.138-3.767-15.617-5.711-25.784-5.711h-59.358c-1.823 0-3.299 1.461-3.299 3.27v17.816c0 1.81 1.476 3.271 3.299 3.271h59.209c4.995 0 8.94 1.214 12.125 3.612 3.186 2.554 5.449 5.555 7.138 9.174 1.533 3.462 2.263 7.535 2.263 11.72 0 4.187-.766 8.26-2.263 11.722-1.653 3.611-3.952 6.62-7.138 9.174-3.185 2.398-7.137 3.611-12.125 3.611h-20.526c-1.824 0-3.299 1.462-3.299 3.271v17.816c0 1.809 1.475 3.271 3.299 3.271h20.682c10.167 0 18.646-1.944 25.784-5.712 7.137-3.767 12.742-8.713 16.843-14.452 4.101-5.74 6.833-12.332 8.174-19.555l-.007-.007Zm247.286 21.86c4.718-5.711 7.747-12.026 9.401-18.951 1.653-6.925 1.809-14.155.61-21.2-1.377-7.23-4.101-13.85-8.174-19.554-4.101-5.712-9.706-10.692-16.843-14.453-7.138-3.767-15.652-5.711-25.784-5.711h-59.925a2.72 2.72 0 0 0-2.732 2.71v139.894a2.72 2.72 0 0 0 2.732 2.711h24.116a2.72 2.72 0 0 0 2.731-2.711V75.195a2.72 2.72 0 0 1 2.732-2.71h30.19c4.995 0 8.94 1.213 12.125 3.619 3.186 2.547 5.449 5.555 7.138 9.167 1.533 3.462 2.263 7.535 2.263 11.72 0 4.187-.922 8.11-2.419 11.722-1.533 3.767-3.952 6.776-7.138 9.174-3.185 2.398-7.286 3.611-11.82 3.611h-21.25a2.72 2.72 0 0 0-2.732 2.711v18.936a2.72 2.72 0 0 0 2.732 2.711h15.56c.979 0 1.88.518 2.369 1.355l26.167 45.111a2.747 2.747 0 0 0 2.37 1.355h23.286c2.1 0 3.413-2.249 2.37-4.059L618.85 141.23l-.029-.064.036.057c7.287-3.009 13.346-7.528 17.88-13.24l.007.014Z"/>
  <path fill="#E3E3E3" d="m302.968 124.124-26.521 26.301a1.497 1.497 0 0 0-.447 1.071v40.428c0 .837.688 1.518 1.533 1.518h26.521c.844 0 1.532-.681 1.532-1.518v-66.729c0-1.355-1.646-2.029-2.611-1.071h-.007Z"/>
  <path fill="#006394" d="M1076.36 108.486c1.13 1.802 3.77 1.802 4.9 0l35.13-55.988c1.2-1.908-.18-4.37-2.44-4.37h-27.94c-.99 0-1.92.51-2.44 1.348l-21.18 33.73c-.58.922-.58 2.1 0 3.022l13.97 22.25v.008Zm41.58 81.87-36.3-57.846c-.88-1.391-2.93-1.391-3.8 0l-14.73 23.47c-.22.351-.34.757-.34 1.171 0 .414.12.819.34 1.17l21.58 34.376a2.21 2.21 0 0 0 1.89 1.043h29.46c1.75 0 2.82-1.908 1.9-3.384Z"/>
  <path fill="#E3E3E3" d="m1078.1 119.596-44.08-70.255a2.594 2.594 0 0 0-2.2-1.213h-28.63c-2.03 0-3.269 2.213-2.2 3.923l42.38 67.538c.52.83.52 1.888 0 2.711l-42.38 67.509c-1.069 1.71.17 3.924 2.2 3.924h28.63a2.6 2.6 0 0 0 2.2-1.213l44.08-70.227a2.55 2.55 0 0 0 0-2.711v.014Zm-163.115-10.848a2.458 2.458 0 0 0-2.469 2.448v19.462a2.457 2.457 0 0 0 2.469 2.447h51.042a2.457 2.457 0 0 0 2.47-2.447v-19.462a2.458 2.458 0 0 0-2.47-2.448h-51.042Z"/>
  <path fill="#E3E3E3" d="M979.253 169.085h-73.236a2.584 2.584 0 0 1-2.597-2.575V75.245a2.585 2.585 0 0 1 2.597-2.575h70.355a2.584 2.584 0 0 0 2.597-2.576v-19.39c0-1.42-1.163-2.576-2.597-2.576h-99.941c-1.434 0-2.597 1.156-2.597 2.575v140.469c0 1.419 1.163 2.576 2.597 2.576h102.815a2.585 2.585 0 0 0 2.597-2.576v-19.511a2.585 2.585 0 0 0-2.597-2.576h.007ZM798.25 81.688h-21.598c-2.292 0-4.143 1.837-4.143 4.108v103.837c0 2.27 1.859 4.108 4.143 4.108h21.598c2.291 0 4.143-1.838 4.143-4.108V85.796c0-2.27-1.852-4.108-4.143-4.108Zm-101.624-33.56h-20.724c-2.448 0-4.428 1.965-4.428 4.392v136.829c0 2.426 1.987 4.392 4.428 4.392h20.724c2.448 0 4.428-1.966 4.428-4.392V52.527c0-2.427-1.987-4.392-4.428-4.392v-.007Zm-237.317-.007L436.477 48a3.881 3.881 0 0 0-3.654 2.497l-52.291 137.9c-.95 2.519.923 5.201 3.633 5.201h24.067a3.869 3.869 0 0 0 3.675-2.625l32.162-94.862c1.185-3.49 6.166-3.498 7.358 0l32.446 95.025a3.879 3.879 0 0 0 3.675 2.611h29.65L462.921 50.611a3.88 3.88 0 0 0-3.612-2.49Zm391.707.007H723.879c-1.71 0-3.101 1.376-3.101 3.072v18.39c0 1.696 1.384 3.073 3.101 3.073h127.137c1.71 0 3.101-1.377 3.101-3.072V51.2c0-1.696-1.391-3.072-3.101-3.072Z"/>
  <path fill="#10ABF9" d="m148.316 62.507 30.92 17.858c1.469.852 2.377 2.462 2.356 4.208l-.206 22.526c-.014 1.703.852 3.293 2.271 4.158l15.481 9.43c3.058 1.866 6.918-.426 6.918-4.116l-.021-46.558c0-1.717-.894-3.299-2.335-4.143l-51.169-30.005c-3.087-1.81-6.904.539-6.854 4.221l.276 18.334c.029 1.703.923 3.264 2.356 4.087h.007Z"/>
  <path fill="#006394" d="m202.367 143.938-42.99-25.5a5.805 5.805 0 0 0-6.016.049l-54.49 33.489c-3.903 2.399-3.91 8.259-.015 10.671l11.608 7.174a5.803 5.803 0 0 0 6.016.063l37.675-22.257a5.798 5.798 0 0 1 6.308.248l16.014 11.218c1.603 1.121 2.582 2.98 2.632 4.981l.05 1.873c.056 2.306-1.121 4.455-3.066 5.584l-69.957 40.449a5.81 5.81 0 0 1-5.832 0l-35.59-20.647c-1.894-1.1-3.065-3.179-3.057-5.435l.141-43.479c0-2.213 1.15-4.257 3.009-5.364l66.098-39.314c1.873-1.114 3.015-3.185 3.008-5.42l-.426-71.76c-.014-2.2-1.149-4.229-2.98-5.329L106.561.836a5.798 5.798 0 0 0-5.952-.028L3.029 58.321C1.158 59.428 0 61.493 0 63.727l.163 113.16c0 2.164 1.093 4.165 2.874 5.293l12.523 7.897c3.944 2.49 9.01-.404 9.088-5.201L26.337 79.72c.035-2.15 1.135-4.122 2.916-5.222l70.674-43.756a5.783 5.783 0 0 1 5.57-.305c2.15 1.029 3.512 3.271 3.477 5.726l-.582 41.91c-.028 2.186-1.164 4.194-2.987 5.287l-65.63 39.306c-1.852 1.107-2.987 3.158-2.987 5.372l-.035 71.625c0 2.235 1.163 4.299 3.036 5.406l61.288 35.93a5.793 5.793 0 0 0 5.931-.029l95.827-57.463c1.88-1.128 3.022-3.221 2.987-5.47l-.433-28.799c-.035-2.193-1.178-4.201-3.008-5.293l-.014-.007Z"/>
</svg>
