<svg xmlns="http://www.w3.org/2000/svg" width="207" height="242" fill="none" viewBox="0 0 207 242">
  <path fill="#10ABF9" stroke="#006394" d="m148.45 62.007.116.067 30.921 17.858c1.629.944 2.628 2.725 2.605 4.646l-.206 22.526c-.013 1.533.767 2.955 2.031 3.726L148.45 62.007Zm0 0h-.003c-1.209-.747-1.969-2.105-1.994-3.595l-.276-18.332c-.045-3.327 3.379-5.38 6.101-3.784l51.169 30.005c1.283.752 2.088 2.168 2.088 3.712l.021 46.558v.001c0 3.333-3.461 5.333-6.157 3.688h-.001l-15.481-9.43-35.467-48.823Z"/>
  <path stroke="#E3E3E3" d="m202.127 144.377-.015-.009-42.99-25.5v-.001a5.31 5.31 0 0 0-5.498.046h-.001l-54.49 33.489-.263-.426.262.426c-3.585 2.203-3.592 7.603-.013 9.82l103.008-17.845Zm0 0 .013.006m-.013-.006.013.006m0 0c1.668 1.004 2.717 2.844 2.749 4.863l.433 28.798v.001c.033 2.076-1.022 4-2.744 5.033l-95.827 57.464h-.001a5.29 5.29 0 0 1-5.419.026l-.001-.001-61.286-35.928c-1.717-1.015-2.791-2.913-2.791-4.976l.035-71.625c0-2.045 1.049-3.929 2.744-4.942v-.001l65.63-39.306c1.977-1.185 3.199-3.356 3.23-5.708l93.248 66.302Zm-102.085 68.03-.002-.001-35.59-20.647c-2.054-1.192-3.314-3.44-3.306-5.869l.141-43.477c0-2.386 1.24-4.594 3.253-5.793l66.098-39.314.256.43-.256-.43c1.715-1.02 2.771-2.924 2.764-4.99l-.426-71.758c-.013-2.031-1.061-3.896-2.737-4.903L106.304 1.265h-.001a5.301 5.301 0 0 0-5.44-.027L3.284 58.752l96.771 153.662Zm0 0a6.309 6.309 0 0 0 6.331 0h-6.331ZM.663 176.887c0 1.996 1.008 3.836 2.64 4.87l-2.64-4.87Zm0 0L.5 63.727m.163 113.16L.5 63.727m0 0c0-2.064 1.068-3.961 2.783-4.975L.5 63.727Zm110.227 105.668-11.608-7.173 7.268 50.19 69.957-40.449c2.108-1.223 3.376-3.547 3.314-6.029v-.001l-.049-1.872c-.054-2.154-1.108-4.163-2.846-5.378l-16.013-11.217h-.001a6.295 6.295 0 0 0-6.848-.269l-37.675 22.257a5.305 5.305 0 0 1-5.499-.058v-.001Zm-1.835-91.315.582-41.91c.038-2.642-1.429-5.067-3.761-6.184a6.28 6.28 0 0 0-6.05.332L28.99 74.072c-1.93 1.193-3.115 3.325-3.153 5.64l-1.689 105.156c-.072 4.439-4.734 7.051-8.322 4.786l-12.522-7.896L108.892 78.08Z"/>
</svg>
