<svg xmlns="http://www.w3.org/2000/svg" width="207" height="242" fill="none" viewBox="0 0 207 242">
  <path fill="#10ABF9" d="m148.316 62.507 30.92 17.858c1.469.852 2.377 2.462 2.356 4.208l-.206 22.526c-.014 1.703.852 3.293 2.271 4.158l15.481 9.43c3.058 1.866 6.918-.426 6.918-4.116l-.021-46.558c0-1.717-.894-3.299-2.335-4.143l-51.169-30.005c-3.087-1.81-6.904.539-6.854 4.221l.276 18.334c.029 1.703.923 3.264 2.356 4.087h.007Z"/>
  <path fill="#006394" d="m202.367 143.938-42.99-25.5a5.805 5.805 0 0 0-6.016.049l-54.49 33.489c-3.903 2.399-3.91 8.259-.015 10.671l11.608 7.174a5.803 5.803 0 0 0 6.016.063l37.675-22.257a5.798 5.798 0 0 1 6.308.248l16.014 11.218c1.603 1.121 2.582 2.98 2.632 4.981l.05 1.873c.056 2.306-1.121 4.455-3.066 5.584l-69.957 40.449a5.81 5.81 0 0 1-5.832 0l-35.59-20.647c-1.894-1.1-3.065-3.179-3.057-5.435l.141-43.479c0-2.213 1.15-4.257 3.009-5.364l66.098-39.314c1.873-1.114 3.015-3.185 3.008-5.42l-.426-71.76c-.014-2.2-1.149-4.229-2.98-5.329L106.561.836a5.798 5.798 0 0 0-5.952-.028L3.029 58.321C1.158 59.428 0 61.493 0 63.727l.163 113.16c0 2.164 1.093 4.165 2.874 5.293l12.523 7.897c3.944 2.49 9.01-.404 9.088-5.201L26.337 79.72c.035-2.15 1.135-4.122 2.916-5.222l70.674-43.756a5.783 5.783 0 0 1 5.57-.305c2.15 1.029 3.512 3.271 3.477 5.726l-.582 41.91c-.028 2.186-1.164 4.194-2.987 5.287l-65.63 39.306c-1.852 1.107-2.987 3.158-2.987 5.372l-.035 71.625c0 2.235 1.163 4.299 3.036 5.406l61.288 35.93a5.793 5.793 0 0 0 5.931-.029l95.827-57.463c1.88-1.128 3.022-3.221 2.987-5.47l-.433-28.799c-.035-2.193-1.178-4.201-3.008-5.293l-.014-.007Z"/>
</svg>
