<svg xmlns="http://www.w3.org/2000/svg" width="843" height="146" fill="none" viewBox="0 0 843 146">
  <path fill="#E3E3E3" d="M113.458 58.137c.518-3.036.795-6.137.795-9.174 0-3.036-.242-6.137-.795-9.174v.064c-1.377-7.23-4.101-13.85-8.174-19.554-4.101-5.711-9.706-10.692-16.844-14.453C81.303 2.08 72.825.135 62.657.135H3.299C1.476.135 0 1.596 0 3.405v17.816c0 1.81 1.476 3.271 3.3 3.271h59.208c4.995 0 8.94 1.214 12.125 3.612 3.186 2.554 5.45 5.555 7.138 9.174 1.533 3.462 2.263 7.535 2.263 11.72 0 4.187-.766 8.26-2.263 11.722-1.653 3.611-3.952 6.62-7.138 9.174-3.185 2.398-7.137 3.611-12.125 3.611H41.982c-1.824 0-3.3 1.462-3.3 3.271v17.816c0 1.81 1.476 3.27 3.3 3.27h20.682c10.167 0 18.646-1.943 25.784-5.71 7.137-3.768 12.742-8.714 16.843-14.454 4.101-5.74 6.833-12.33 8.174-19.554l-.007-.007Zm247.286 21.86c4.718-5.711 7.747-12.026 9.401-18.95 1.653-6.925 1.809-14.155.61-21.2-1.377-7.23-4.101-13.85-8.174-19.555-4.101-5.712-9.706-10.692-16.843-14.453C338.6 2.072 330.086.128 319.954.128h-59.925a2.72 2.72 0 0 0-2.732 2.71v139.894a2.72 2.72 0 0 0 2.732 2.711h24.116a2.72 2.72 0 0 0 2.731-2.711V27.195a2.72 2.72 0 0 1 2.732-2.71h30.19c4.995 0 8.94 1.213 12.125 3.619 3.186 2.547 5.449 5.555 7.138 9.167 1.533 3.462 2.263 7.535 2.263 11.72 0 4.187-.922 8.11-2.419 11.722-1.533 3.767-3.952 6.776-7.138 9.174-3.185 2.398-7.286 3.611-11.82 3.611h-21.25a2.72 2.72 0 0 0-2.732 2.71v18.937a2.72 2.72 0 0 0 2.732 2.71h15.56c.979 0 1.88.519 2.369 1.356l26.167 45.111a2.747 2.747 0 0 0 2.37 1.355h23.286c2.1 0 3.413-2.249 2.37-4.059L342.85 93.23l-.029-.064.036.057c7.287-3.009 13.346-7.528 17.88-13.24l.007.014Z"/>
  <path fill="#E3E3E3" d="M26.968 76.124.447 102.425c-.29.284-.447.674-.447 1.071v40.428c0 .837.688 1.518 1.533 1.518h26.521c.844 0 1.533-.681 1.533-1.518v-66.73c0-1.354-1.647-2.028-2.611-1.07h-.008Z"/>
  <path fill="#006394" d="M800.363 60.486c1.129 1.802 3.768 1.802 4.896 0l35.135-55.988c1.192-1.908-.184-4.37-2.448-4.37h-27.933c-.993 0-1.923.51-2.448 1.348l-21.172 33.73a2.839 2.839 0 0 0 0 3.022l13.963 22.25.007.008Zm41.578 81.87L805.635 84.51c-.873-1.391-2.923-1.391-3.796 0l-14.729 23.47a2.213 2.213 0 0 0 0 2.341l21.576 34.376a2.227 2.227 0 0 0 1.894 1.043h29.459c1.753 0 2.824-1.908 1.902-3.384Z"/>
  <path fill="#E3E3E3" d="M802.101 71.596 758.02 1.341a2.613 2.613 0 0 0-2.2-1.213h-28.629c-2.029 0-3.27 2.213-2.199 3.923l42.379 67.538c.518.83.518 1.888 0 2.71l-42.379 67.51c-1.071 1.71.163 3.924 2.199 3.924h28.629a2.59 2.59 0 0 0 2.2-1.213l44.081-70.227c.518-.83.518-1.88 0-2.71v.013ZM638.985 60.748a2.457 2.457 0 0 0-2.469 2.448v19.462a2.457 2.457 0 0 0 2.469 2.448h51.042a2.458 2.458 0 0 0 2.47-2.448V63.196a2.458 2.458 0 0 0-2.47-2.448h-51.042Z"/>
  <path fill="#E3E3E3" d="M703.253 121.085h-73.236a2.584 2.584 0 0 1-2.597-2.575V27.245a2.585 2.585 0 0 1 2.597-2.575h70.355a2.584 2.584 0 0 0 2.597-2.576V2.704c0-1.42-1.163-2.576-2.597-2.576h-99.941c-1.434 0-2.597 1.156-2.597 2.575v140.469c0 1.419 1.163 2.576 2.597 2.576h102.815a2.585 2.585 0 0 0 2.597-2.576v-19.511a2.585 2.585 0 0 0-2.597-2.576h.007ZM522.25 33.688h-21.598c-2.292 0-4.143 1.837-4.143 4.108v103.837c0 2.27 1.859 4.108 4.143 4.108h21.598c2.291 0 4.143-1.838 4.143-4.108V37.796c0-2.27-1.852-4.108-4.143-4.108ZM420.626.128h-20.724c-2.448 0-4.428 1.965-4.428 4.392v136.829c0 2.426 1.987 4.392 4.428 4.392h20.724c2.448 0 4.428-1.966 4.428-4.392V4.527c0-2.427-1.987-4.392-4.428-4.392V.128ZM183.309.12 160.477 0a3.881 3.881 0 0 0-3.654 2.497l-52.291 137.9c-.95 2.519.923 5.201 3.633 5.201h24.067a3.869 3.869 0 0 0 3.675-2.625l32.162-94.862c1.185-3.49 6.166-3.498 7.358 0l32.446 95.025a3.879 3.879 0 0 0 3.675 2.611h29.65L186.921 2.611a3.88 3.88 0 0 0-3.612-2.49Zm391.707.007H447.879c-1.71 0-3.101 1.376-3.101 3.072v18.39c0 1.696 1.384 3.073 3.101 3.073h127.137c1.71 0 3.101-1.377 3.101-3.073V3.2c0-1.696-1.391-3.072-3.101-3.072Z"/>
</svg>
